<?xml version="1.0" encoding="utf-8"?>
<!-- Generator: Adobe Illustrator 19.0.0, SVG Export Plug-In . SVG Version: 6.00 Build 0)  -->
<svg version="1.1" id="Laag_1" xmlns="http://www.w3.org/2000/svg" xmlns:xlink="http://www.w3.org/1999/xlink" x="0px" y="0px"
	 viewBox="0 0 119.1 158" style="enable-background:new 0 0 119.1 158;" xml:space="preserve">
<style type="text/css">
	.st0{fill:#3AAA35;}
	.st1{fill:#F47660;}
	.st2{fill:#BF4132;}
	.st3{fill:#9AD14B;}
	.st4{fill:#90BC42;}
	.st5{fill:#F7B239;}
	.st6{fill:#E09B2D;}
	.st7{fill:#4D4D4D;}
	.st8{fill:#FBD490;}
	.st9{fill:#E0B877;}
</style>
<g id="XMLID_1_">
	<g id="XMLID_2_" transform="matrix(.05078 0 0 .05078 10 10)">
		<path id="XMLID_3_" class="st0" d="M2117,645.6c0,0-144,71.4-276.5,76.3c-981.5,36.5-809.1,775.3-797.7,781.2
			c0,0,76.8-70.1,159.2-97.8c522.4-175.4,722.9-505.7,722.9-505.7s-232.8,400.1-694.7,547.6c-102,32.5-204.9,160.1-275.3,298
			c0,0,66.5-4.9,93.9-3.3c30.5-61.3,70.9-116.4,123.5-160.3c505.7,231,813.5-137.5,883.3-278C2220.4,971.7,2117,645.6,2117,645.6"/>
	</g>
</g>
<g id="XMLID_28_">
	<g id="XMLID_44_">
		<g id="XMLID_49_">
			<path id="XMLID_53_" class="st1" d="M6.3,84.8c5.3,5.3,10.1,6.8,17.5,6.4c7.3-0.4,15.2,8.8,20.8,8.9l0,0c3.4,0.3,6.9-0.8,9.5-3.4
				c3-3,4-7.1,3.2-10.9l0,0c-0.6-4.1-7.7-18.4-20.6-31.4c-8.4-8.4-22-8.4-30.4,0C-2.1,62.8-2.1,76.4,6.3,84.8z M14.5,64.1
				c2.4-2.4,6.2-2.4,8.5,0c2.4,2.4,2.4,6.2,0,8.5c-2.4,2.4-6.2,2.4-8.5,0S12.1,66.4,14.5,64.1z"/>
			<path id="XMLID_50_" class="st1" d="M14.1,73c2.6,2.6,6.7,2.6,9.3,0c2.6-2.6,2.6-6.7,0-9.3c-2.6-2.6-6.7-2.6-9.3,0
				C11.6,66.3,11.6,70.4,14.1,73z M15.9,65.5c1.6-1.6,4.1-1.6,5.7,0c1.6,1.6,1.6,4.1,0,5.7c-1.6,1.6-4.1,1.6-5.7,0
				C14.3,69.6,14.3,67.1,15.9,65.5z"/>
		</g>
		<path id="XMLID_45_" class="st2" d="M9.2,57.3c-6.8,6.8-6.8,17.8,0,24.5c4.3,4.3,7.8,5.5,14.4,5.2c1.6-0.1,3.2,0.1,4.8,0.6
			c0-0.9,0.1-1.9,0.2-3C29,81,30,77,31.4,73.8c2.2-5,5.2-8.2,8.7-9.4c-1.9-2.4-4.1-4.7-6.4-7.1C27,50.6,16,50.6,9.2,57.3z M23,64.1
			c2.4,2.4,2.4,6.2,0,8.5c-2.4,2.4-6.2,2.4-8.5,0s-2.4-6.2,0-8.5C16.8,61.7,20.7,61.7,23,64.1z M36.8,72.6
			c-3.7,5.8-4.5,14.3-4.1,16.8c1.9,1,3.6,2.1,5.3,3.2c2.2,1.4,4.8,3,6.3,3.3l0.7,0.1c2.3,0.2,4.5-0.6,6.1-2.2
			c1.9-1.9,2.6-4.5,2.1-7.1l-0.2-1c-0.8-2.9-4.2-9.7-9.9-17.5C40.8,68.2,38.7,69.7,36.8,72.6z"/>
	</g>
	<g id="XMLID_43_">
	</g>
	<g id="XMLID_42_">
	</g>
	<g id="XMLID_41_">
	</g>
	<g id="XMLID_40_">
	</g>
	<g id="XMLID_39_">
	</g>
	<g id="XMLID_38_">
	</g>
	<g id="XMLID_37_">
	</g>
	<g id="XMLID_36_">
	</g>
	<g id="XMLID_35_">
	</g>
	<g id="XMLID_34_">
	</g>
	<g id="XMLID_33_">
	</g>
	<g id="XMLID_32_">
	</g>
	<g id="XMLID_31_">
	</g>
	<g id="XMLID_30_">
	</g>
	<g id="XMLID_29_">
	</g>
</g>
<g id="XMLID_4_">
	<path id="XMLID_27_" class="st3" d="M75,14.1c-5.8,2.5-9.6,6.7-12,11l0,0c0,0,0.4-14.9-4.5-25.1C53.6,10.2,54,25.1,54,25.1
		c4.1,7.2,4.5,14.6,4.5,14.6s5-0.1,9.2,1.7C65.6,30.2,74.9,14.3,75,14.1z"/>
	<path id="XMLID_26_" class="st4" d="M54,25.1L54,25.1c-0.2-0.3-0.4-0.6-0.6-1c-2.5-4-6.1-7.8-11.4-10.1c0.1,0.2,9.4,16.2,7.4,27.4
		c4.2-1.8,9.2-1.7,9.2-1.7V0C53.6,10.2,54,25.1,54,25.1z"/>
	<path id="XMLID_25_" class="st5" d="M73.2,47.4c0,3.2-0.7,8.7-2,15.1c-0.1,0.6-0.2,1.2-0.4,1.8c-0.1,0.6-0.2,1.2-0.4,1.8
		c-2.7,12.5-7.1,27.4-12.1,35.8c-3.1-5.3-6-13.2-8.4-21.4c-0.2-0.6-0.3-1.2-0.5-1.8c-0.2-0.6-0.3-1.2-0.5-1.8
		c-2.1-7.7-3.7-15.4-4.6-21.4c-0.1-0.6-0.2-1.2-0.2-1.8c-0.1-0.6-0.1-1.2-0.2-1.8c-0.2-1.8-0.3-3.3-0.3-4.6c0-4.1,2.6-6.5,5.6-7.8
		c4.2-1.8,9.2-1.7,9.2-1.7s5-0.1,9.2,1.7C70.7,41,73.2,43.3,73.2,47.4z"/>
	<path id="XMLID_24_" class="st6" d="M55.7,78.7c0.8,8.9,1.8,17.5,2.8,23.2c-3.4-5.7-6.5-14.3-9-23.2c-2.5-9-4.4-18.3-5.3-25
		c-0.3-2.6-0.5-4.7-0.5-6.3c0-4.1,2.6-6.5,5.6-7.8c3.8-1.7,8.4-1.7,9.1-1.7c-0.4,0-1.7,0.1-2.8,1.7c-1,1.3-1.8,3.7-1.8,7.8
		c0,1.6,0.1,3.8,0.2,6.3C54.3,60.4,54.9,69.7,55.7,78.7z"/>
	<g id="XMLID_20_">
		<path id="XMLID_23_" class="st7" d="M52.2,53.8c0,1-0.8,1.8-1.8,1.8h-5.9c-0.1-0.6-0.2-1.2-0.2-1.8c-0.1-0.6-0.1-1.2-0.2-1.8h6.4
			C51.4,52,52.2,52.8,52.2,53.8z"/>
		<path id="XMLID_22_" class="st7" d="M58.5,78.7c0,1-0.8,1.8-1.8,1.8H50c-0.2-0.6-0.3-1.2-0.5-1.8c-0.2-0.6-0.3-1.2-0.5-1.8h7.7
			C57.7,77,58.5,77.8,58.5,78.7z"/>
		<path id="XMLID_21_" class="st7" d="M71.3,62.6c-0.1,0.6-0.2,1.2-0.4,1.8c-0.1,0.6-0.2,1.2-0.4,1.8H62c-1,0-1.8-0.8-1.8-1.8
			c0-1,0.8-1.8,1.8-1.8H71.3z"/>
	</g>
	<g id="XMLID_19_">
	</g>
	<g id="XMLID_18_">
	</g>
	<g id="XMLID_17_">
	</g>
	<g id="XMLID_16_">
	</g>
	<g id="XMLID_15_">
	</g>
	<g id="XMLID_14_">
	</g>
	<g id="XMLID_13_">
	</g>
	<g id="XMLID_12_">
	</g>
	<g id="XMLID_11_">
	</g>
	<g id="XMLID_10_">
	</g>
	<g id="XMLID_9_">
	</g>
	<g id="XMLID_8_">
	</g>
	<g id="XMLID_7_">
	</g>
	<g id="XMLID_6_">
	</g>
	<g id="XMLID_5_">
	</g>
</g>
<g id="XMLID_56_">
	<g id="XMLID_72_">
		<path id="XMLID_77_" class="st8" d="M109.4,84.5l-4.3,62.4c-0.3,6.2-5.5,11.1-11.7,11.1H23.5c-6.2,0-11.4-4.9-11.7-11.1L7.5,86.6
			C7.5,85.2,9,84.2,10.2,85l3.4,2c3.8,2.3,8.7,2.3,12.5,0l0.9-0.5c3.3-2,7.4-2,10.7,0l1.8,1.1c3.3,2,7.4,2,10.7,0l1.8-1.1
			c3.3-2,7.4-2,10.7,0l1.8,1.1c3.3,2,7.4,2,10.7,0l1.8-1.1c3.3-2,7.4-2,10.7,0l1.8,1.1c3.3,2,7.4,2,10.7,0l8.4-3.7
			C108.9,83.5,109.5,84,109.4,84.5z"/>
		<path id="XMLID_76_" class="st9" d="M37.4,126.1H20c-1.4,0-2.5-1.1-2.5-2.5s1.1-2.5,2.5-2.5h17.4c1.4,0,2.5,1.1,2.5,2.5
			S38.8,126.1,37.4,126.1z"/>
		<path id="XMLID_75_" class="st9" d="M42.4,136H20c-1.4,0-2.5-1.1-2.5-2.5s1.1-2.5,2.5-2.5h22.4c1.4,0,2.5,1.1,2.5,2.5
			S43.8,136,42.4,136z"/>
		<path id="XMLID_74_" class="st9" d="M47.4,146H20c-1.4,0-2.5-1.1-2.5-2.5s1.1-2.5,2.5-2.5h27.4c1.4,0,2.5,1.1,2.5,2.5
			S48.8,146,47.4,146z"/>
	</g>
	<g id="XMLID_71_">
	</g>
	<g id="XMLID_70_">
	</g>
	<g id="XMLID_69_">
	</g>
	<g id="XMLID_68_">
	</g>
	<g id="XMLID_67_">
	</g>
	<g id="XMLID_66_">
	</g>
	<g id="XMLID_65_">
	</g>
	<g id="XMLID_64_">
	</g>
	<g id="XMLID_63_">
	</g>
	<g id="XMLID_62_">
	</g>
	<g id="XMLID_61_">
	</g>
	<g id="XMLID_60_">
	</g>
	<g id="XMLID_59_">
	</g>
	<g id="XMLID_58_">
	</g>
	<g id="XMLID_57_">
	</g>
</g>
</svg>
